<?xml version="1.0" encoding="utf-8"?>
<!-- Generator: Adobe Illustrator 23.0.1, SVG Export Plug-In . SVG Version: 6.00 Build 0)  -->
<svg version="1.1" id="レイヤー_1" xmlns="http://www.w3.org/2000/svg" xmlns:xlink="http://www.w3.org/1999/xlink" x="0px"
	 y="0px" viewBox="0 0 1920 990" style="enable-background:new 0 0 1920 990;" xml:space="preserve">
<style type="text/css">
	.st0{fill:#40A2F8;}
</style>
<path class="st0" d="M1112.69,218.94l-65.21,421.3c-5.32,34.35-15.42,66-30.02,94.09c-14.6,28.07-37.34,57.11-67.58,86.31
	L935,833.59l47.97,73.36l30.15-25.63c23.29-21.08,42.98-41.86,58.52-61.75c15.62-20,28.76-40.28,39.05-60.28
	c10.37-20.14,18.48-40.87,24.12-61.59v0c5.47-20.15,10.28-41.77,14.34-64.6l64.1-414.16H1112.69z"/>
<path class="st0" d="M308.12,760.94c33.82-2.47,67.7-4.71,101.62-6.81l69.35-448.1h146.15l8.1-87.08H217.6l13.43,87.08h147.5
	L308.12,760.94z"/>
<path class="st0" d="M687.75,741.19l28.58-184.67h16.91c6.02,0,11.75-0.14,17-0.4c1.15-0.06,2.22-0.11,3.23-0.15l118.75,181.32
	c34.68-0.39,69.39-0.65,104.16-0.65c5.85,0,11.69,0.05,17.54,0.06L859.55,536.95c36.77-12.62,67.74-31.04,92.26-54.91
	c29.19-28.43,47.02-62.4,52.98-100.97c4.06-26.24,1.84-50.04-6.62-70.75c-8.46-20.68-21.98-38.09-40.21-51.75
	c-17.61-13.17-39.04-23.22-63.7-29.85c-24.13-6.49-51.06-9.78-80.04-9.78H668.01L586.6,744.91
	C620.27,743.49,653.99,742.25,687.75,741.19z M755.22,305.25h49.38c15.83,0,30.88,1.57,44.73,4.67
	c13.22,2.97,24.62,7.51,33.88,13.49c8.43,5.45,14.49,12.49,18.51,21.53c3.98,8.95,4.98,20.13,2.95,33.22
	c-2.44,15.75-7.81,28.89-16.42,40.18c-8.76,11.49-20,21.11-33.4,28.59c-13.89,7.75-30.03,13.61-47.96,17.41
	c-18.33,3.89-38.06,5.87-58.62,5.87h-18.59L755.22,305.25z"/>
<polygon class="st0" points="1423.07,383.83 1339.94,218.94 1232.31,218.94 1357.04,465.03 "/>
<path class="st0" d="M1699.5,218.94h-112.57l-152.5,187.41l-0.07-0.14l-65.99,81.15l0.08,0.15l-206.56,252.68
	c36.55,1.01,73.04,2.26,109.48,3.7l139.94-172.22l92.75,184.38c32.44,2.11,64.83,4.42,97.17,6.87h13.95l-138-271.69L1699.5,218.94z"
	/>
</svg>
